#!OML:ASF H:\Terrain\Patient Classification 1\Takeo\Monday\TakeoMonday.ASF
:FULLY-SPECIFIED
:DEGREES
1956
root 9.07733 17.7579 1.13885 -15.3236 37.7688 -14.1005
lowerback 7.141 2.17811 2.6547
upperback -1.03222 2.85934 -7.76741
thorax -4.57305 1.28112 -10.1154
lowerneck -9.11409 -11.1992 -9.31577
upperneck -14.9711 -12.8412 14.4411
head -1.34753 -6.08811 5.53514
rclavicle 5.22804e-014 3.18055e-015
rhumerus 68.8247 -23.818 -25.6635
rradius 48.4609
rwrist -18.122
rhand -39.0514 35.5396
rfingers 7.12502
rthumb -12.0532 5.90675
lclavicle 5.22804e-014 3.18055e-015
lhumerus -37.8347 9.77353 67.3775
lradius 36.4947
lwrist 31.5887
lhand -29.1107 15.5909
lfingers 7.12502
lthumb -2.45866 45.5565
rfemur 12.2959 -13.6931 28.4084
rtibia -1.59028e-014
rfoot -7.07003 -27.5192
rtoes 9.4632
lfemur 2.38648 -11.6315 -8.39254
ltibia 27.2985
lfoot -19.2571 9.91009
ltoes -3.85564
1957
root 9.08636 17.7505 1.13035 -15.6588 37.4658 -14.4268
lowerback 7.24393 2.105 3.07097
upperback -1.0541 2.7973 -7.67375
thorax -4.65193 1.2344 -10.2608
lowerneck -9.01782 -11.135 -9.0896
upperneck -14.8594 -12.805 14.2566
head -1.3645 -6.08334 5.4495
rclavicle -7.95139e-015 -1.59028e-014
rhumerus 68.1941 -23.4828 -25.7788
rradius 50.1618
rwrist -18.3544
rhand -38.7701 35.0683
rfingers 7.12502
rthumb -11.782 5.41968
lclavicle -7.95139e-015 -1.59028e-014
lhumerus -37.9991 9.67671 67.2202
lradius 36.3322
lwrist 31.6274
lhand -29.3947 15.2947
lfingers 7.12502
lthumb -2.73286 45.257
rfemur 12.4585 -13.5549 28.6847
rtibia 4.13472e-014
rfoot -7.13718 -27.4567
rtoes 10.419
lfemur 2.61487 -11.763 -8.17945
ltibia 27.3426
lfoot -19.5067 10.0623
ltoes -3.16018
1958
root 9.09793 17.7513 1.11743 -15.1413 37.4398 -13.8997
lowerback 6.99563 2.04827 2.75527
upperback -1.09793 2.69078 -7.78215
thorax -4.58761 1.19074 -10.17
lowerneck -9.07345 -11.1425 -8.88843
upperneck -14.6904 -12.8542 14.0799
head -1.33005 -6.11302 5.35419
rclavicle 7.03698e-014 7.31528e-014
rhumerus 67.6116 -23.128 -25.8228
rradius 51.7759
rwrist -18.4814
rhand -39.0963 35.1117
rfingers 7.12502
rthumb -12.0965 5.48138
lclavicle 7.03698e-014 7.31528e-014
lhumerus -38.2175 9.61534 67.1216
lradius 36.4224
lwrist 31.7545
lhand -30.0106 15.1675
lfingers 7.12502
lthumb -3.32766 45.1212
rfemur 12.2809 -13.4427 28.2494
rtibia -2.38542e-015
rfoot -6.91321 -27.4162
rtoes 11.418
lfemur 2.52367 -11.842 -8.74791
ltibia 27.2255
lfoot -19.4276 10.4312
ltoes -4.41884
1959
root 9.10843 17.7616 1.1008 -14.4516 37.402 -13.1133
lowerback 6.78709 2.13211 2.24255
upperback -1.14448 2.75892 -7.84925
thorax -4.52524 1.24029 -9.93459
lowerneck -8.97813 -11.3051 -9.22521
upperneck -14.6538 -13.0651 14.0996
head -1.28814 -6.20593 5.40008
rclavicle 2.78299e-015 5.725e-014
rhumerus 66.6315 -22.903 -25.0593
rradius 53.4511
rwrist -18.9264
rhand -39.4164 34.9984
rfingers 7.12502
rthumb -12.4051 5.3865
lclavicle 2.78299e-015 5.725e-014
lhumerus -38.3258 9.7658 67.2591
lradius 36.5263
lwrist 31.5403
lhand -30.1195 15.2887
lfingers 7.12502
lthumb -3.43285 45.2408
rfemur 12.0903 -13.2645 27.5761
rtibia -5.56597e-015
rfoot -6.84515 -27.3056
rtoes 11.4476
lfemur 2.41083 -11.7253 -9.49921
ltibia 27.0719
lfoot -19.2441 10.6961
ltoes -5.54795
1960
root 9.11795 17.7725 1.08871 -14.0821 37.1333 -12.6184
lowerback 6.69427 2.23092 1.91581
upperback -1.15044 2.86643 -7.79581
thorax -4.47656 1.30508 -9.68418
lowerneck -8.85596 -11.4177 -9.57375
upperneck -14.7604 -13.1934 14.1676
head -1.29556 -6.25941 5.47461
rclavicle -4.35338e-014 1.27222e-014
rhumerus 65.637 -22.743 -24.2048
rradius 55.3038
rwrist -19.58
rhand -39.332 34.6297
rfingers 7.12502
rthumb -12.3237 5.0129
lclavicle -4.35338e-014 1.27222e-014
lhumerus -38.1683 10.4733 67.2999
lradius 36.2254
lwrist 30.7569
lhand -29.9339 15.652
lfingers 7.12502
lthumb -3.25366 45.6069
rfemur 12.023 -12.9505 27.1697
rtibia 2.46493e-014
rfoot -7.06305 -27.1592
rtoes 11.053
lfemur 2.44329 -11.5439 -9.94251
ltibia 27.0229
lfoot -19.3596 10.7271
ltoes -4.54009
1961
root 9.12157 17.7708 1.08737 -14.2588 36.7268 -12.7331
lowerback 6.71117 2.26002 1.96761
upperback -1.08533 2.91551 -7.63178
thorax -4.41381 1.33265 -9.53321
lowerneck -8.95649 -11.466 -9.62579
upperneck -14.7218 -13.2513 14.1558
head -1.26048 -6.28228 5.46804
rclavicle 6.52014e-014 -3.18055e-014
rhumerus 64.8506 -22.5074 -23.8031
rradius 57.1699
rwrist -19.9862
rhand -39.3648 34.6974
rfingers 7.12502
rthumb -12.3554 5.08251
lclavicle 6.52014e-014 -3.18055e-014
lhumerus -37.9282 10.7763 67.3793
lradius 35.95
lwrist 30.6557
lhand -29.8052 16.2028
lfingers 7.12502
lthumb -3.12929 46.1596
rfemur 12.0839 -12.6615 27.3359
rtibia 7.15625e-015
rfoot -6.9068 -27.1529
rtoes 9.82398
lfemur 2.66315 -11.2894 -9.77897
ltibia 27.0085
lfoot -19.4835 10.663
ltoes -4.05637
1962
root 9.11731 17.7526 1.08834 -15.5705 36.0118 -14.035
lowerback 7.2134 2.23358 3.0362
upperback -0.906294 2.98223 -7.21728
thorax -4.46541 1.34166 -9.73409
lowerneck -9.24999 -11.5104 -9.47564
upperneck -14.5151 -13.3208 14.0368
head -1.1687 -6.31102 5.38164
rclavicle -8.66701e-014 6.04305e-014
rhumerus 64.2362 -22.2379 -23.7928
rradius 58.8324
rwrist -19.9991
rhand -39.4407 35.0414
rfingers 7.12502
rthumb -12.4286 5.43097
lclavicle -8.66701e-014 6.04305e-014
lhumerus -37.7285 10.5163 67.5551
lradius 35.9133
lwrist 31.3042
lhand -30.0455 16.2064
lfingers 7.12502
lthumb -3.36139 46.1596
rfemur 11.7004 -12.4095 28.574
rtibia 1.7965
rfoot -7.6513 -27.0119
rtoes 9.63276
lfemur 3.42967 -10.9616 -8.50119
ltibia 26.8592
lfoot -19.5787 10.4792
ltoes -4.24278
